<?xml version="1.0" encoding="UTF-8"?>
<svg width="1e3" height="1e3" version="1.1" viewBox="0 0 1e3 1e3" xmlns="http://www.w3.org/2000/svg">
 <circle cx="500" cy="500" r="460" fill="none" stroke="#000" stroke-linecap="round" stroke-linejoin="round" stroke-width="10"/>
 <path d="m434.5 841.7c-12.06-3.244-23.05-7.018-24.41-8.388-1.37-1.37 4.107-7.188 12.17-12.93 14.4-10.26 14.61-10.93 11.87-38.45-8.198-82.28-29.94-244.9-35.57-266.1-7.162-26.9-19.21-31.97-81.41-34.21-64.5-2.322-74.62-4.089-74.62-13.02 0-7.667-11.73-9.279-16.1-2.212-1.564 2.53-13.16 4.6-25.78 4.6-18.22 0-25.26-2.322-34.23-11.29-16.5-16.5-15.43-40.48 2.61-58.52 12.15-12.15 16.35-13.62 33.35-11.71 10.7 1.208 24.11 3.724 29.8 5.592 7.783 2.553 10.35 1.603 10.35-3.832 0-8.723 13.22-11.13 75.9-13.84 45.69-1.976 75.01-10.56 124.3-36.39l13.65-7.15-15.6-8.482c-27.19-14.78-45.02-33.04-57.03-58.42-11.62-24.54-11.75-24.64-40.61-30.32-33.16-6.523-30.45-10.01 14.39-18.56 27.07-5.165 31.21-7.505 43.71-24.75 21.78-30.05 49.73-41.44 101-41.2 29.31 0.1375 46.99 2.512 58.15 7.809 17.81 8.451 39.57 27.22 50.12 43.23 5.19 7.877 14.31 11.77 36.8 15.7 16.44 2.877 31.71 6.807 33.93 8.732 2.214 1.925-8.678 6-24.2 9.055-27.46 5.402-28.49 6.134-37.6 26.79-10.91 24.73-36.69 52.79-55.74 60.68-7.326 3.035-12.58 7.737-11.68 10.45 0.9043 2.713 21.16 13.07 45.02 23.01 39.83 16.6 48.03 18.33 100.3 21.12 46.95 2.509 57.94 4.469 62.87 11.22 4.766 6.518 7.868 7.173 15.26 3.218 17.16-9.181 46.01-6.055 58.39 6.327 14.55 14.55 15.37 42.08 1.757 59.39-7.772 9.881-13.35 12.12-30.2 12.12-11.37 0-25-2.316-30.28-5.146-7.922-4.24-10.91-3.515-16.95 4.115-6.523 8.239-14.09 9.486-68.59 11.31-88.85 2.966-84.08-4.253-104.1 157.6-6.561 53.13-14.14 113.1-16.84 133.2-5.234 39-5.154 39.23 18.87 53.15 29.9 17.33-98.47 31.13-153 16.45z" fill="none" stroke="#000" stroke-width="10"/>
</svg>
