<?xml version="1.0" encoding="UTF-8"?>
<svg width="1e3" height="1e3" version="1.1" viewBox="0 0 1e3 1e3" xmlns="http://www.w3.org/2000/svg">
 <circle cx="500" cy="500" r="460" fill="#2dbe2d"/>
 <path d="m299.3 842.6c-37.1-9.978-77.51-33.29-108.5-62.62l-27.7-26.19 167.5-168.4 28.34-59.8c15.59-32.89 38.48-81.38 50.87-107.8l22.53-47.95-14.2-23.43c-7.81-12.89-17.93-28.37-22.48-34.41l-8.281-10.98-38.75 8.131c-55.96 11.74-60.44 8.567-22.43-15.91l32.15-20.7 0.2438-52.78 32.8-16.52c43.76-22.04 114.5-52.6 121.8-52.6 3.216 0 9.515 6.21 14 13.8 10.66 18.05 14.99 18.45 67.34 6.211 17.2-4.02 32.22-6.361 33.37-5.202 1.158 1.158-12.28 12.27-29.86 24.7-25.6 18.09-31.46 24.43-29.4 31.79 4.049 14.47 19.32 28.63 34.04 31.57 14.51 2.903 17.53 12.23 6.836 21.11-4.886 4.055-5.938 11.46-3.978 28.01 3.436 29.01-4.724 49.63-21.01 53.08-20.96 4.445-32.04 10.38-37.12 19.86-4.285 8.007-0.0368 14.29 33.07 48.91l37.98 39.72 48.04-18.78c26.42-10.33 51.78-18.78 56.36-18.78s16.08-8.612 25.56-19.14c19.18-21.3 50.93-37.72 63.95-33.09 16.32 5.812 24.59 16.71 24.59 32.41 0 12.36-4.197 19.64-20.44 35.42-11.24 10.92-26.76 22.48-34.5 25.69-8.394 3.477-14.06 9.198-14.06 14.19 0 5.923-17.85 18.52-61.17 43.14-33.64 19.13-64.44 34.78-68.44 34.78s-15.17-3.301-24.82-7.335c-16.51-6.899-17.92-6.83-23.76 1.15-15.34 20.97-13.08 28.54 18.18 60.66 16.39 16.84 46.16 47.54 66.16 68.21l36.35 37.59 40.25-2.585c27.47-1.764 40.25-0.9996 40.25 2.407 0 16.28-102.4 97.5-123 97.5-6.457 0-80.56-62.97-161.2-137l-51.83-47.57-15.58 12.92c-55.87 46.33-144.9 124.1-146.7 128.2-1.204 2.691 6.913 19.82 18.04 38.06 11.12 18.24 20.23 34.16 20.23 35.36 0 3.054-3.522 2.488-31.68-5.085z" fill="#fdffff" stroke-width="4.6"/>
</svg>
